<?xml version="1.0" encoding="UTF-8"?>
<svg id="Layer_1" data-name="Layer 1" xmlns="http://www.w3.org/2000/svg" viewBox="0 0 432 144">
  <defs>
    <style>
      .cls-1, .cls-2 {
        fill: #7e6d18;
      }

      .cls-3 {
        fill: #fff;
      }

      .cls-4 {
        fill: #a5f0fd;
      }

      .cls-5, .cls-6 {
        fill: #c1b327;
      }

      .cls-7 {
        fill: #fca286;
      }

      .cls-6, .cls-8, .cls-9 {
        opacity: .5;
      }

      .cls-10 {
        fill: #7b412e;
      }

      .cls-8 {
        fill: #c06f53;
      }

      .cls-2 {
        opacity: .3;
      }

      .cls-11 {
        fill: #fcee3c;
      }

      .cls-9, .cls-12 {
        fill: #6dbfcb;
      }

      .cls-13 {
        fill: #652915;
      }

      .cls-14 {
        fill: #21747f;
      }

      .cls-15 {
        fill: #685c0e;
      }
    </style>
  </defs>
  <g>
    <g>
      <path class="cls-7" d="M333.86,98.94c-3.27-4.63-4.25-9.5-4.55-12-.49-4.18-.16-10.6,4.21-17.42,4.37-6.8,10.51-9.55,13.81-11.03,5.6-2.5,9.92-2.84,13.39-3.11,1.48-.11,2.76-.21,3.97-.46,7.72-1.55,14.84-9.67,21.14-24.14,.67-1.53,2.28-2.43,3.93-2.19,1.03,.15,1.92,.72,2.49,1.53,.34,.49,.57,1.06,.65,1.68,1.09,8.82-.11,17.54-3.47,25.22-1.28,2.91-3.01,6.88-5.81,10.44,.56,.28,1.03,.69,1.38,1.18,.52,.74,.77,1.66,.65,2.61-.61,4.82-2.16,8.89-4.39,11.82,.43,.77,.59,1.69,.39,2.61-.76,3.46-2.14,6.68-4.1,9.57-2.49,3.67-5.25,5.75-7.27,7.27l-.39,.3c-2.01,1.52-5.73,4.35-11.08,5.53-10.05,2.23-18.12-2.99-19.01-3.59-2.33-1.59-4.33-3.55-5.95-5.85Z"/>
      <path class="cls-13" d="M389.23,32.28c.65,5.22,.88,13.98-3.18,23.28-2.23,5.1-5.71,13.06-13.72,15.77-3.47,1.17-6.65,.98-8.71,.66,.86,.77,3.71,3.14,8.01,3.34,6.01,.27,9.85-3.95,10.36-4.53-.91,7.18-4.28,12.6-8.67,13.51-.81,.17-1.85,.22-3.09-.07,.14,.38,.32,.73,.55,1.05,.67,.94,1.68,1.6,2.83,1.78,1.74,.28,3.52-.58,4.44-2.16-.43,1.98-1.37,5.07-3.54,8.29-2.3,3.4-4.92,5.25-6.83,6.7-1.85,1.4-5.09,3.86-9.64,4.86-8.63,1.91-15.73-2.76-16.13-3.04-2.14-1.46-3.77-3.17-5.01-4.92-3.01-4.27-3.71-8.75-3.9-10.3-.91-7.69,2.6-13.35,3.65-14.98,3.71-5.78,8.94-8.19,12.2-9.65,7.3-3.27,12.01-2.4,16.58-3.31,6.56-1.32,15.32-6.82,23.81-26.29m6.05-4.27c-1.15-1.62-2.93-2.76-4.99-3.06-3.3-.48-6.52,1.31-7.86,4.37-3.98,9.14-10.42,20.37-18.47,21.99-.99,.2-2.17,.29-3.53,.4-3.56,.28-8.43,.65-14.62,3.42-3.39,1.52-10.45,4.68-15.41,12.41-4.97,7.74-5.34,15.07-4.77,19.85,.34,2.84,1.46,8.4,5.2,13.7,1.88,2.66,4.2,4.94,6.88,6.77,1.02,.7,10.31,6.71,21.9,4.15,6.13-1.36,10.44-4.62,12.51-6.19l.39-.29c2.1-1.58,5.27-3.97,8.11-8.16,2.22-3.28,3.79-6.94,4.65-10.86,.21-.95,.22-1.91,.07-2.82,2.01-3.24,3.4-7.3,3.99-11.94,.21-1.64-.14-3.25-.92-4.61,2.04-3.15,3.41-6.28,4.42-8.6,3.62-8.28,4.92-17.68,3.75-27.16-.15-1.24-.61-2.39-1.3-3.36h0Z"/>
    </g>
    <path class="cls-3" d="M389.23,32.28c-.11,3.02-.86,12.85-8.42,21.66-2.34,2.73-9.76,10.51-20.15,11.65-3.69,.4-5.1-.32-8.68,.81-7.92,2.49-11.64,9.35-12.14,8.96-.46-.36,1.88-6.8,7.99-11.05,5.41-3.76,8.47-2.13,16.19-5.41,6.9-2.93,11.31-7.15,13.75-9.52,6.17-6.01,9.58-12.5,11.46-17.11Z"/>
    <path class="cls-8" d="M340.69,72.55c-.23,.82-2.06,7.72,1.99,14.42,3.49,5.77,10.37,10.04,16.49,9.08,3.55-.56,6.14-2.66,6.14-2.66,1.9-1.55,2.91-3.32,3.4-4.36,.83,.13,2.92,.35,5.26-.68,2.36-1.04,3.61-2.74,4.07-3.44-.71,2.51-3.13,9.81-10.38,14.99-2.21,1.58-10.16,7.25-19.82,4.46-8.9-2.58-12.65-10.43-13.14-11.5-4.45-9.75,.49-18.84,1.32-20.31,4.12-7.26,10.87-9.96,12.83-10.66-1.23,.76-6.27,4.05-8.15,10.67Z"/>
    <path class="cls-10" d="M351.99,67.87c-1.5-1.21-12.82,5.13-13.55,15.33-.36,4.99,1.85,10.58,6.42,13.81,6.5,4.59,15.71,2.83,16.15,.8,.51-2.35-11.32-3.37-14.13-11.24-2.98-8.34,6.68-17.44,5.11-18.7Z"/>
    <path class="cls-8" d="M364.7,76.1c2.09,2.1,4.96,4.23,8.02,3.83,5.63-.74,9.38-10.23,9.25-9.13-.22,1.87-.99,6.72-3.93,10.34-1.39,1.72-2.55,2.43-3.59,2.81-1.84,.67-4.58,.77-5.89-.7-.56-.63-.48-1.13-.87-2.33-.41-1.28-1.22-2.99-2.99-4.83Z"/>
    <path class="cls-8" d="M389.23,32.28c.86,7.65-.2,13.77-1.16,17.57-.87,3.42-2.21,8.47-6.14,13.66-2.06,2.72-4.46,5.8-8.84,7.54-3.95,1.56-7.57,1.26-9.48,.95-.43-.55-1.07-1.23-1.98-1.85-1.61-1.1-3.2-1.41-4.08-1.51,2.5,.47,11.29,1.82,18.98-3.49,5.59-3.86,7.76-9.34,9.46-13.33,3.28-7.71,3.54-14.87,3.24-19.54Z"/>
    <path class="cls-3" d="M359.37,75.65c.39-.38,4.26,1.52,5.3,5.02,1.19,3.99-1.86,8.16-2.43,7.99-.5-.15,1.16-3.61-.2-7.96-1-3.21-2.98-4.75-2.67-5.05Z"/>
  </g>
  <g>
    <g>
      <path class="cls-11" d="M61.86,108.84c-4.4,0-8.21-1.12-11.33-3.33-.71-.51-1.4-1.07-2.03-1.69-.24-.23-.41-.41-.48-.48-.51-.53-2.56-2.72-4.42-4.7l-.43-.46c-1.14-1-2.21-2.14-3.03-3.26-.07-.09-.13-.18-.19-.27-7.89-9.96-3.28-27.85,10.7-41.06,8.59-8.12,19.19-12.96,28.36-12.96,4.91,0,9.22,1.39,12.53,4.02,.18,.12,.36,.25,.52,.39,3.33,2.85,6.26,5.92,8.7,9.11,1.11,1.44,1.57,2.21,1.92,2.82,2.9,5.2,2.62,10.25,2.49,12.41-.03,.46-.76,11.39-11.28,23.3-1.53,1.73-3.17,3.26-3.24,3.32-.06,.06-1.62,1.5-3.42,2.87-6.11,4.66-12.18,7.45-15.04,8.22v.04c-1.9,.56-5.87,1.73-10.33,1.73h0Z"/>
      <path class="cls-15" d="M79,45.13c3.97,0,7.48,1.09,10.1,3.35,0,0,.02-.02,.02-.02,3.85,3.3,6.42,6.29,8.06,8.43,.94,1.22,1.3,1.82,1.56,2.28,2.22,3.98,2.04,7.92,1.93,9.95,0,0-.55,9.7-10.16,20.58-1.4,1.58-2.92,3-2.92,3,0,0-1.45,1.34-3.09,2.59-7.52,5.74-13.57,7.52-13.57,7.52-1.77,.52-5.26,1.54-9.07,1.54-2.93,0-6.05-.6-8.73-2.5-.62-.44-1.12-.88-1.5-1.25-.17-.16-.29-.29-.34-.34-.51-.54-2.57-2.72-4.42-4.69-.21-.23-.41-.44-.6-.64,0,0,0,0,0,0-.78-.83-1.47-1.57-1.96-2.09-.01-.01-.03-.02-.04-.04,.39,.42,1.02,1.09,1.99,2.11-1.59-1.35-2.46-2.6-2.55-2.71,.02,.03,.1,.11,.26,.28-.01-.01-.02-.03-.03-.04-.1-.11-.18-.19-.24-.25,0,0,0,0,0,0,0,0,0,0,0,0,0,0,.01-.01,.02-.02-6.78-7.96-2.43-23.58,9.99-35.32,8.05-7.61,17.53-11.73,25.27-11.73m-35.28,47.07s0,0,0,0c0,0,0,0,0,0,0,0,0,0,0,0m2.56,2.72h0m32.72-58.8s0,0,0,0c-10.44,0-21.91,5.17-31.45,14.19-15.88,15.01-20.6,35.01-11.24,46.99,.06,.09,.13,.19,.2,.28,.71,.97,1.87,2.37,3.53,3.84l.29,.31c1.86,1.98,3.93,4.18,4.45,4.72,.09,.09,.3,.31,.59,.59,.8,.78,1.66,1.5,2.57,2.14,3.9,2.76,8.58,4.16,13.94,4.16s9.5-1.29,11.61-1.91c.82-.24,7.96-2.48,16.5-9,1.91-1.46,3.56-2.97,3.74-3.14,.2-.19,1.92-1.79,3.56-3.65,10.87-12.31,12.22-23.54,12.39-26.03h0c.13-2.33,.48-8.51-3.05-14.85-.58-1.04-1.24-2.01-2.28-3.37-2.64-3.44-5.78-6.74-9.35-9.79-.26-.22-.52-.42-.79-.61-4.09-3.2-9.32-4.88-15.19-4.88h0Z"/>
    </g>
    <g>
      <path class="cls-11" d="M87.59,92.69s-1.45,1.34-3.09,2.59c-7.52,5.74-13.57,7.52-13.57,7.52-3.13,.92-11.63,3.41-17.8-.96-.62-.44-1.12-.88-1.5-1.25-.17-.16-.29-.29-.34-.34-.92-.97-6.77-7.2-7.57-8.05,15.14-14.58,30.27-29.16,45.41-43.75,3.85,3.3,6.42,6.29,8.06,8.43,.94,1.22,1.3,1.82,1.56,2.28,2.22,3.98,2.04,7.92,1.93,9.95,0,0-.55,9.7-10.16,20.58-1.4,1.58-2.92,3-2.92,3Z"/>
      <path class="cls-6" d="M87.59,92.69s-1.45,1.34-3.09,2.59c-7.52,5.74-13.57,7.52-13.57,7.52-3.13,.92-11.63,3.41-17.8-.96-.62-.44-1.12-.88-1.5-1.25-.17-.16-.29-.29-.34-.34-.92-.97-6.77-7.2-7.57-8.05,15.14-14.58,30.27-29.16,45.41-43.75,3.85,3.3,6.42,6.29,8.06,8.43,.94,1.22,1.3,1.82,1.56,2.28,2.22,3.98,2.04,7.92,1.93,9.95,0,0-.55,9.7-10.16,20.58-1.4,1.58-2.92,3-2.92,3Z"/>
      <ellipse class="cls-11" cx="67.08" cy="70.99" rx="31.57" ry="19.43" transform="translate(-30.43 65.47) rotate(-43.38)"/>
      <ellipse class="cls-5" cx="67.08" cy="70.99" rx="23.72" ry="11.58" transform="translate(-30.43 65.47) rotate(-43.38)"/>
      <path class="cls-1" d="M49.84,87.28c-.31-.4-.73-1.01-1.07-1.84-.54-1.34-.88-3.29,.41-7.47,1.28-4.19,3.15-7.21,4.09-8.62,2.13-3.2,4.28-5.27,5.85-6.77,1.23-1.18,2.96-2.81,5.52-4.54,.52-.35,6.05-4.02,12.35-5.02,1.44-.23,3-.33,4.72,.25,1.19,.41,2.06,1.01,2.6,1.44-4.11,.83-12.24,3.06-20.06,9.66-10.02,8.46-13.36,18.92-14.42,22.92Z"/>
      <path class="cls-11" d="M84.32,54.7c.48,.74,1.12,1.94,1.41,3.5,.15,.78,.45,2.86-1.15,7.19-.52,1.41-1.6,4.02-3.73,7.19-.91,1.35-3.18,4.55-6.97,7.87-1.86,1.63-4.48,3.62-7.9,5.45,3.38-2.17,10.67-7.53,15.03-17.33,2.42-5.45,3.13-10.43,3.31-13.87Z"/>
      <path class="cls-6" d="M84.32,54.7c.48,.74,1.12,1.94,1.41,3.5,.15,.78,.45,2.86-1.15,7.19-.52,1.41-1.6,4.02-3.73,7.19-.91,1.35-3.18,4.55-6.97,7.87-1.86,1.63-4.48,3.62-7.9,5.45,3.38-2.17,10.67-7.53,15.03-17.33,2.42-5.45,3.13-10.43,3.31-13.87Z"/>
      <path class="cls-6" d="M43.72,92.2s2.27,3.36,6.39,5.12c3.12,1.33,6.04,1.2,7.9,1.09,.94-.05,3.83-.28,8.51-2.19,1.85-.76,5.99-2.6,10.96-6.43,2.57-1.99,7.71-6.03,12.16-13.05,2.49-3.93,4.98-7.86,5.41-13.44,.32-4.13-.62-7.48-.37-7.53,.3-.06,2.13,4.5,2.4,9.86,.55,10.74-5.41,18.98-7.1,21.25-3.22,4.33-6.7,6.95-8.63,8.38-1.92,1.42-4.85,3.56-9.23,5.24-1.84,.7-6.64,2.35-12.27,2.14-2.1-.08-3.51-.39-4.66-.77-2.24-.74-3.86-1.84-4.84-2.63-5.35-5.67-6.63-7.03-6.62-7.03Z"/>
      <path class="cls-3" d="M79.45,82.93c.06,.04,15.17-13.62,12.19-26.04-.22-.9-1.29-4.98-4.9-7.69-5.22-3.91-12.08-2.22-14.8-1.55-4.33,1.07-7.06,3.02-11.01,5.83-3.78,2.7-8.44,6.1-11.72,12.1-2.4,4.39-3.44,9.03-2.87,9.29,.63,.29,2.66-5.07,7.95-11.06,2.05-2.32,6.06-6.4,12.13-9.7,3.91-2.13,6.85-3.67,10.89-3.45,1.35,.07,6.16,.34,8.93,3.99,1.77,2.34,1.88,4.96,1.96,6.82,.11,2.8-.48,5.25-1.99,8.97-3.24,7.99-6.87,12.41-6.78,12.48Z"/>
      <path class="cls-2" d="M65.53,63.33c-1.55,2.83-3.26,6.5-4.63,10.97-2.01,6.6-1.08,7.79-.75,8.14,1.96,2.04,7.29-.18,8.96-.87,3.22-1.34,5.44-3.24,6.73-4.54-3.03,3.74-6.1,6.13-8.25,7.58-2.34,1.57-4.44,2.59-6.37,3.3-2.65,.98-4.85,1.77-7.5,1.2-1.79-.38-3.1-1.24-3.88-1.84,.74-2.79,1.9-6.07,3.73-9.55,2.03-3.87,4.17-6.58,5.27-7.9,2.36-2.83,4.73-4.96,6.69-6.49Z"/>
    </g>
  </g>
  <g>
    <g>
      <path class="cls-4" d="M251.55,31.14c-9.28,7.32-19.59,14.84-30.95,22.3-8.59,5.63-16.95,10.69-24.99,15.22-.32,4.21-.87,8.75-1.75,13.54-1.91,10.44-4.87,19.4-7.91,26.72,6.7-4.23,15.03-8.66,25-12.3,4.58-1.67,8.95-2.98,13.05-4.01,3.12-8.69,6.69-17.78,10.8-27.2,5.43-12.46,11.11-23.89,16.76-34.27Z"/>
      <path class="cls-14" d="M183.3,112.05c-1.37-1.16-1.84-3.07-1.15-4.73,3.47-8.34,6.05-17.05,7.67-25.88,.79-4.32,1.36-8.74,1.69-13.11,.1-1.36,.88-2.58,2.07-3.25,8.37-4.73,16.7-9.8,24.76-15.08,10.49-6.88,20.81-14.31,30.66-22.09,1.53-1.21,3.71-1.17,5.2,.09,1.5,1.26,1.9,3.4,.97,5.11-6,11.02-11.58,22.44-16.6,33.95-3.85,8.82-7.45,17.89-10.69,26.94-.46,1.28-1.53,2.25-2.86,2.59-4.27,1.07-8.53,2.38-12.64,3.88-8.43,3.08-16.58,7.09-24.22,11.92-1.51,.96-3.48,.82-4.85-.34Zm16.22-40.88c-.37,3.94-.91,7.9-1.62,11.78-1.03,5.65-2.44,11.26-4.2,16.76,5.13-2.66,10.42-4.99,15.82-6.96,3.7-1.35,7.51-2.55,11.34-3.58,3.11-8.55,6.53-17.09,10.16-25.42,2.69-6.17,5.54-12.32,8.53-18.39-5.49,3.97-11.06,7.82-16.69,11.51-7.6,4.99-15.44,9.79-23.34,14.3Z"/>
    </g>
    <path class="cls-9" d="M240.42,44.77c-11.99,14.22-23.99,28.44-35.98,42.65,1.82-.59,5.35-1.44,9.69-.69,3.05,.53,5.39,1.66,6.86,2.53,1.97-6.39,4.43-13.29,7.5-20.55,3.82-9.02,7.92-17.01,11.93-23.94Z"/>
    <path class="cls-12" d="M204.44,87.42c-3.79,4.35-7.58,8.7-11.37,13.05,3.57-2.12,7.8-4.32,12.69-6.34,5.58-2.3,10.75-3.83,15.22-4.87-1.42-.84-3.52-1.85-6.19-2.4-4.61-.96-8.43-.04-10.36,.57Z"/>
    <path class="cls-9" d="M199.45,71.09c1.01,2.75,1.99,5.68,2.93,8.78,.78,2.61,1.47,5.13,2.07,7.56-3.79,4.35-7.58,8.7-11.37,13.05,1.65-4.38,3.26-9.59,4.49-15.54,1.04-5.06,1.61-9.72,1.89-13.84Z"/>
  </g>
</svg>